<mxfile host="app.diagrams.net" modified="2023-09-24T12:03:57.261Z" agent="Mozilla/5.0 (Windows NT 10.0; Win64; x64) AppleWebKit/537.36 (KHTML, like Gecko) Chrome/117.0.0.0 Safari/537.36 Edg/117.0.2045.36" etag="ST8ioee-gS4BYe-hF74d" version="21.8.1" type="github">
  <diagram id="C5RBs43oDa-KdzZeNtuy" name="Page-1">
    <mxGraphModel dx="1177" dy="908" grid="0" gridSize="10" guides="1" tooltips="1" connect="1" arrows="1" fold="1" page="0" pageScale="1" pageWidth="827" pageHeight="1169" math="0" shadow="0">
      <root>
        <mxCell id="WIyWlLk6GJQsqaUBKTNV-0" />
        <mxCell id="WIyWlLk6GJQsqaUBKTNV-1" parent="WIyWlLk6GJQsqaUBKTNV-0" />
        <mxCell id="KD26_EoCOuMA53v5xbRF-264" value="PhieuChamCongHanhChinh_1Ngay" style="swimlane;fontStyle=1;align=center;verticalAlign=top;childLayout=stackLayout;horizontal=1;startSize=26;horizontalStack=0;resizeParent=1;resizeLast=0;collapsible=1;marginBottom=0;rounded=0;shadow=0;strokeWidth=1;fontSize=16;" vertex="1" parent="WIyWlLk6GJQsqaUBKTNV-1">
          <mxGeometry x="1296" y="707" width="284" height="294" as="geometry">
            <mxRectangle x="230" y="140" width="160" height="26" as="alternateBounds" />
          </mxGeometry>
        </mxCell>
        <mxCell id="KD26_EoCOuMA53v5xbRF-265" value="- maNV: String {id}" style="text;align=left;verticalAlign=top;spacingLeft=4;spacingRight=4;overflow=hidden;rotatable=0;points=[[0,0.5],[1,0.5]];portConstraint=eastwest;fontSize=16;" vertex="1" parent="KD26_EoCOuMA53v5xbRF-264">
          <mxGeometry y="26" width="284" height="26" as="geometry" />
        </mxCell>
        <mxCell id="KD26_EoCOuMA53v5xbRF-266" value="- Ngay: LocalData {id}" style="text;align=left;verticalAlign=top;spacingLeft=4;spacingRight=4;overflow=hidden;rotatable=0;points=[[0,0.5],[1,0.5]];portConstraint=eastwest;rounded=0;shadow=0;html=0;fontSize=16;" vertex="1" parent="KD26_EoCOuMA53v5xbRF-264">
          <mxGeometry y="52" width="284" height="26" as="geometry" />
        </mxCell>
        <mxCell id="KD26_EoCOuMA53v5xbRF-270" value="- vang: boolean" style="text;align=left;verticalAlign=top;spacingLeft=4;spacingRight=4;overflow=hidden;rotatable=0;points=[[0,0.5],[1,0.5]];portConstraint=eastwest;rounded=0;shadow=0;html=0;fontSize=16;" vertex="1" parent="KD26_EoCOuMA53v5xbRF-264">
          <mxGeometry y="78" width="284" height="26" as="geometry" />
        </mxCell>
        <mxCell id="KD26_EoCOuMA53v5xbRF-293" value="- diTre: boolean" style="text;align=left;verticalAlign=top;spacingLeft=4;spacingRight=4;overflow=hidden;rotatable=0;points=[[0,0.5],[1,0.5]];portConstraint=eastwest;rounded=0;shadow=0;html=0;fontSize=16;" vertex="1" parent="KD26_EoCOuMA53v5xbRF-264">
          <mxGeometry y="104" width="284" height="26" as="geometry" />
        </mxCell>
        <mxCell id="KD26_EoCOuMA53v5xbRF-294" value="- gioTangCa: int" style="text;align=left;verticalAlign=top;spacingLeft=4;spacingRight=4;overflow=hidden;rotatable=0;points=[[0,0.5],[1,0.5]];portConstraint=eastwest;rounded=0;shadow=0;html=0;fontSize=16;" vertex="1" parent="KD26_EoCOuMA53v5xbRF-264">
          <mxGeometry y="130" width="284" height="26" as="geometry" />
        </mxCell>
        <mxCell id="KD26_EoCOuMA53v5xbRF-295" value="- tienPhat: double" style="text;align=left;verticalAlign=top;spacingLeft=4;spacingRight=4;overflow=hidden;rotatable=0;points=[[0,0.5],[1,0.5]];portConstraint=eastwest;rounded=0;shadow=0;html=0;fontSize=16;" vertex="1" parent="KD26_EoCOuMA53v5xbRF-264">
          <mxGeometry y="156" width="284" height="26" as="geometry" />
        </mxCell>
        <mxCell id="KD26_EoCOuMA53v5xbRF-296" value="- noiDungPhat: String" style="text;align=left;verticalAlign=top;spacingLeft=4;spacingRight=4;overflow=hidden;rotatable=0;points=[[0,0.5],[1,0.5]];portConstraint=eastwest;rounded=0;shadow=0;html=0;fontSize=16;" vertex="1" parent="KD26_EoCOuMA53v5xbRF-264">
          <mxGeometry y="182" width="284" height="26" as="geometry" />
        </mxCell>
        <mxCell id="KD26_EoCOuMA53v5xbRF-268" value="" style="line;html=1;strokeWidth=1;align=left;verticalAlign=middle;spacingTop=-1;spacingLeft=3;spacingRight=3;rotatable=0;labelPosition=right;points=[];portConstraint=eastwest;fontSize=16;" vertex="1" parent="KD26_EoCOuMA53v5xbRF-264">
          <mxGeometry y="208" width="284" height="8" as="geometry" />
        </mxCell>
        <mxCell id="KD26_EoCOuMA53v5xbRF-267" value="&lt;&lt;get()/set()&gt;&gt;" style="text;align=center;verticalAlign=top;spacingLeft=4;spacingRight=4;overflow=hidden;rotatable=0;points=[[0,0.5],[1,0.5]];portConstraint=eastwest;rounded=0;shadow=0;html=0;fontSize=16;" vertex="1" parent="KD26_EoCOuMA53v5xbRF-264">
          <mxGeometry y="216" width="284" height="26" as="geometry" />
        </mxCell>
        <mxCell id="KD26_EoCOuMA53v5xbRF-269" value="+ constructor()Â " style="text;align=left;verticalAlign=top;spacingLeft=4;spacingRight=4;overflow=hidden;rotatable=0;points=[[0,0.5],[1,0.5]];portConstraint=eastwest;fontSize=16;" vertex="1" parent="KD26_EoCOuMA53v5xbRF-264">
          <mxGeometry y="242" width="284" height="26" as="geometry" />
        </mxCell>
        <mxCell id="KD26_EoCOuMA53v5xbRF-358" value="+ toString(): String" style="text;align=left;verticalAlign=top;spacingLeft=4;spacingRight=4;overflow=hidden;rotatable=0;points=[[0,0.5],[1,0.5]];portConstraint=eastwest;fontSize=16;" vertex="1" parent="KD26_EoCOuMA53v5xbRF-264">
          <mxGeometry y="268" width="284" height="26" as="geometry" />
        </mxCell>
        <mxCell id="KD26_EoCOuMA53v5xbRF-297" value="NhanVien" style="swimlane;fontStyle=1;align=center;verticalAlign=top;childLayout=stackLayout;horizontal=1;startSize=26;horizontalStack=0;resizeParent=1;resizeLast=0;collapsible=1;marginBottom=0;rounded=0;shadow=0;strokeWidth=1;fontSize=16;" vertex="1" parent="WIyWlLk6GJQsqaUBKTNV-1">
          <mxGeometry x="1670" y="705" width="255" height="452" as="geometry">
            <mxRectangle x="230" y="140" width="160" height="26" as="alternateBounds" />
          </mxGeometry>
        </mxCell>
        <mxCell id="KD26_EoCOuMA53v5xbRF-298" value="- maNV: String {id}" style="text;align=left;verticalAlign=top;spacingLeft=4;spacingRight=4;overflow=hidden;rotatable=0;points=[[0,0.5],[1,0.5]];portConstraint=eastwest;fontSize=16;" vertex="1" parent="KD26_EoCOuMA53v5xbRF-297">
          <mxGeometry y="26" width="255" height="26" as="geometry" />
        </mxCell>
        <mxCell id="KD26_EoCOuMA53v5xbRF-299" value="- tenNV: String" style="text;align=left;verticalAlign=top;spacingLeft=4;spacingRight=4;overflow=hidden;rotatable=0;points=[[0,0.5],[1,0.5]];portConstraint=eastwest;rounded=0;shadow=0;html=0;fontSize=16;" vertex="1" parent="KD26_EoCOuMA53v5xbRF-297">
          <mxGeometry y="52" width="255" height="26" as="geometry" />
        </mxCell>
        <mxCell id="KD26_EoCOuMA53v5xbRF-300" value="- gioiTinh: boolean" style="text;align=left;verticalAlign=top;spacingLeft=4;spacingRight=4;overflow=hidden;rotatable=0;points=[[0,0.5],[1,0.5]];portConstraint=eastwest;rounded=0;shadow=0;html=0;fontSize=16;" vertex="1" parent="KD26_EoCOuMA53v5xbRF-297">
          <mxGeometry y="78" width="255" height="26" as="geometry" />
        </mxCell>
        <mxCell id="KD26_EoCOuMA53v5xbRF-301" value="- ngaySinh: Localdate" style="text;align=left;verticalAlign=top;spacingLeft=4;spacingRight=4;overflow=hidden;rotatable=0;points=[[0,0.5],[1,0.5]];portConstraint=eastwest;rounded=0;shadow=0;html=0;fontSize=16;" vertex="1" parent="KD26_EoCOuMA53v5xbRF-297">
          <mxGeometry y="104" width="255" height="26" as="geometry" />
        </mxCell>
        <mxCell id="KD26_EoCOuMA53v5xbRF-302" value="- gngayBatDauLam: Localdate" style="text;align=left;verticalAlign=top;spacingLeft=4;spacingRight=4;overflow=hidden;rotatable=0;points=[[0,0.5],[1,0.5]];portConstraint=eastwest;rounded=0;shadow=0;html=0;fontSize=16;" vertex="1" parent="KD26_EoCOuMA53v5xbRF-297">
          <mxGeometry y="130" width="255" height="26" as="geometry" />
        </mxCell>
        <mxCell id="KD26_EoCOuMA53v5xbRF-303" value="- CCCD: String" style="text;align=left;verticalAlign=top;spacingLeft=4;spacingRight=4;overflow=hidden;rotatable=0;points=[[0,0.5],[1,0.5]];portConstraint=eastwest;rounded=0;shadow=0;html=0;fontSize=16;" vertex="1" parent="KD26_EoCOuMA53v5xbRF-297">
          <mxGeometry y="156" width="255" height="26" as="geometry" />
        </mxCell>
        <mxCell id="KD26_EoCOuMA53v5xbRF-304" value="- luongCoBan: double" style="text;align=left;verticalAlign=top;spacingLeft=4;spacingRight=4;overflow=hidden;rotatable=0;points=[[0,0.5],[1,0.5]];portConstraint=eastwest;rounded=0;shadow=0;html=0;fontSize=16;" vertex="1" parent="KD26_EoCOuMA53v5xbRF-297">
          <mxGeometry y="182" width="255" height="26" as="geometry" />
        </mxCell>
        <mxCell id="KD26_EoCOuMA53v5xbRF-351" value="- phuCap: double" style="text;align=left;verticalAlign=top;spacingLeft=4;spacingRight=4;overflow=hidden;rotatable=0;points=[[0,0.5],[1,0.5]];portConstraint=eastwest;rounded=0;shadow=0;html=0;fontSize=16;" vertex="1" parent="KD26_EoCOuMA53v5xbRF-297">
          <mxGeometry y="208" width="255" height="26" as="geometry" />
        </mxCell>
        <mxCell id="KD26_EoCOuMA53v5xbRF-352" value="- thamNien: int" style="text;align=left;verticalAlign=top;spacingLeft=4;spacingRight=4;overflow=hidden;rotatable=0;points=[[0,0.5],[1,0.5]];portConstraint=eastwest;rounded=0;shadow=0;html=0;fontSize=16;" vertex="1" parent="KD26_EoCOuMA53v5xbRF-297">
          <mxGeometry y="234" width="255" height="26" as="geometry" />
        </mxCell>
        <mxCell id="KD26_EoCOuMA53v5xbRF-353" value="- capBac: int" style="text;align=left;verticalAlign=top;spacingLeft=4;spacingRight=4;overflow=hidden;rotatable=0;points=[[0,0.5],[1,0.5]];portConstraint=eastwest;rounded=0;shadow=0;html=0;fontSize=16;" vertex="1" parent="KD26_EoCOuMA53v5xbRF-297">
          <mxGeometry y="260" width="255" height="26" as="geometry" />
        </mxCell>
        <mxCell id="KD26_EoCOuMA53v5xbRF-355" value="- trangThai: boolean" style="text;align=left;verticalAlign=top;spacingLeft=4;spacingRight=4;overflow=hidden;rotatable=0;points=[[0,0.5],[1,0.5]];portConstraint=eastwest;rounded=0;shadow=0;html=0;fontSize=16;" vertex="1" parent="KD26_EoCOuMA53v5xbRF-297">
          <mxGeometry y="286" width="255" height="26" as="geometry" />
        </mxCell>
        <mxCell id="KD26_EoCOuMA53v5xbRF-356" value="- soNgayNghiPhepTrongNam: int" style="text;align=left;verticalAlign=top;spacingLeft=4;spacingRight=4;overflow=hidden;rotatable=0;points=[[0,0.5],[1,0.5]];portConstraint=eastwest;rounded=0;shadow=0;html=0;fontSize=16;" vertex="1" parent="KD26_EoCOuMA53v5xbRF-297">
          <mxGeometry y="312" width="255" height="26" as="geometry" />
        </mxCell>
        <mxCell id="KD26_EoCOuMA53v5xbRF-357" value="- dienThoai: String" style="text;align=left;verticalAlign=top;spacingLeft=4;spacingRight=4;overflow=hidden;rotatable=0;points=[[0,0.5],[1,0.5]];portConstraint=eastwest;rounded=0;shadow=0;html=0;fontSize=16;" vertex="1" parent="KD26_EoCOuMA53v5xbRF-297">
          <mxGeometry y="338" width="255" height="26" as="geometry" />
        </mxCell>
        <mxCell id="KD26_EoCOuMA53v5xbRF-305" value="" style="line;html=1;strokeWidth=1;align=left;verticalAlign=middle;spacingTop=-1;spacingLeft=3;spacingRight=3;rotatable=0;labelPosition=right;points=[];portConstraint=eastwest;fontSize=16;" vertex="1" parent="KD26_EoCOuMA53v5xbRF-297">
          <mxGeometry y="364" width="255" height="8" as="geometry" />
        </mxCell>
        <mxCell id="KD26_EoCOuMA53v5xbRF-307" value="&lt;&lt;get()/set()&gt;&gt;" style="text;align=center;verticalAlign=top;spacingLeft=4;spacingRight=4;overflow=hidden;rotatable=0;points=[[0,0.5],[1,0.5]];portConstraint=eastwest;fontSize=16;" vertex="1" parent="KD26_EoCOuMA53v5xbRF-297">
          <mxGeometry y="372" width="255" height="26" as="geometry" />
        </mxCell>
        <mxCell id="KD26_EoCOuMA53v5xbRF-361" value="+ constructor()" style="text;align=left;verticalAlign=top;spacingLeft=4;spacingRight=4;overflow=hidden;rotatable=0;points=[[0,0.5],[1,0.5]];portConstraint=eastwest;fontSize=16;" vertex="1" parent="KD26_EoCOuMA53v5xbRF-297">
          <mxGeometry y="398" width="255" height="26" as="geometry" />
        </mxCell>
        <mxCell id="KD26_EoCOuMA53v5xbRF-362" value="+ toString(): String" style="text;align=left;verticalAlign=top;spacingLeft=4;spacingRight=4;overflow=hidden;rotatable=0;points=[[0,0.5],[1,0.5]];portConstraint=eastwest;fontSize=16;" vertex="1" parent="KD26_EoCOuMA53v5xbRF-297">
          <mxGeometry y="424" width="255" height="26" as="geometry" />
        </mxCell>
        <mxCell id="KD26_EoCOuMA53v5xbRF-379" value="TaiKhoan" style="swimlane;fontStyle=1;align=center;verticalAlign=top;childLayout=stackLayout;horizontal=1;startSize=26;horizontalStack=0;resizeParent=1;resizeLast=0;collapsible=1;marginBottom=0;rounded=0;shadow=0;strokeWidth=1;fontSize=16;" vertex="1" parent="WIyWlLk6GJQsqaUBKTNV-1">
          <mxGeometry x="2021" y="705" width="218" height="248" as="geometry">
            <mxRectangle x="230" y="140" width="160" height="26" as="alternateBounds" />
          </mxGeometry>
        </mxCell>
        <mxCell id="KD26_EoCOuMA53v5xbRF-380" value="- userName: String {id}" style="text;align=left;verticalAlign=top;spacingLeft=4;spacingRight=4;overflow=hidden;rotatable=0;points=[[0,0.5],[1,0.5]];portConstraint=eastwest;fontSize=16;" vertex="1" parent="KD26_EoCOuMA53v5xbRF-379">
          <mxGeometry y="26" width="218" height="26" as="geometry" />
        </mxCell>
        <mxCell id="KD26_EoCOuMA53v5xbRF-381" value="- maNV: StringÂ " style="text;align=left;verticalAlign=top;spacingLeft=4;spacingRight=4;overflow=hidden;rotatable=0;points=[[0,0.5],[1,0.5]];portConstraint=eastwest;rounded=0;shadow=0;html=0;fontSize=16;" vertex="1" parent="KD26_EoCOuMA53v5xbRF-379">
          <mxGeometry y="52" width="218" height="26" as="geometry" />
        </mxCell>
        <mxCell id="KD26_EoCOuMA53v5xbRF-391" value="- matKhau: String" style="text;align=left;verticalAlign=top;spacingLeft=4;spacingRight=4;overflow=hidden;rotatable=0;points=[[0,0.5],[1,0.5]];portConstraint=eastwest;rounded=0;shadow=0;html=0;fontSize=16;" vertex="1" parent="KD26_EoCOuMA53v5xbRF-379">
          <mxGeometry y="78" width="218" height="26" as="geometry" />
        </mxCell>
        <mxCell id="KD26_EoCOuMA53v5xbRF-392" value="- vaiTro: String" style="text;align=left;verticalAlign=top;spacingLeft=4;spacingRight=4;overflow=hidden;rotatable=0;points=[[0,0.5],[1,0.5]];portConstraint=eastwest;rounded=0;shadow=0;html=0;fontSize=16;" vertex="1" parent="KD26_EoCOuMA53v5xbRF-379">
          <mxGeometry y="104" width="218" height="26" as="geometry" />
        </mxCell>
        <mxCell id="KD26_EoCOuMA53v5xbRF-397" value="- trangThai: boolean" style="text;align=left;verticalAlign=top;spacingLeft=4;spacingRight=4;overflow=hidden;rotatable=0;points=[[0,0.5],[1,0.5]];portConstraint=eastwest;rounded=0;shadow=0;html=0;fontSize=16;" vertex="1" parent="KD26_EoCOuMA53v5xbRF-379">
          <mxGeometry y="130" width="218" height="26" as="geometry" />
        </mxCell>
        <mxCell id="KD26_EoCOuMA53v5xbRF-393" value="" style="line;html=1;strokeWidth=1;align=left;verticalAlign=middle;spacingTop=-1;spacingLeft=3;spacingRight=3;rotatable=0;labelPosition=right;points=[];portConstraint=eastwest;fontSize=16;" vertex="1" parent="KD26_EoCOuMA53v5xbRF-379">
          <mxGeometry y="156" width="218" height="8" as="geometry" />
        </mxCell>
        <mxCell id="KD26_EoCOuMA53v5xbRF-394" value="&lt;&lt;get()/set()&gt;&gt;" style="text;align=center;verticalAlign=top;spacingLeft=4;spacingRight=4;overflow=hidden;rotatable=0;points=[[0,0.5],[1,0.5]];portConstraint=eastwest;fontSize=16;" vertex="1" parent="KD26_EoCOuMA53v5xbRF-379">
          <mxGeometry y="164" width="218" height="26" as="geometry" />
        </mxCell>
        <mxCell id="KD26_EoCOuMA53v5xbRF-395" value="+ constructor()" style="text;align=left;verticalAlign=top;spacingLeft=4;spacingRight=4;overflow=hidden;rotatable=0;points=[[0,0.5],[1,0.5]];portConstraint=eastwest;fontSize=16;" vertex="1" parent="KD26_EoCOuMA53v5xbRF-379">
          <mxGeometry y="190" width="218" height="26" as="geometry" />
        </mxCell>
        <mxCell id="KD26_EoCOuMA53v5xbRF-396" value="+ toString(): String" style="text;align=left;verticalAlign=top;spacingLeft=4;spacingRight=4;overflow=hidden;rotatable=0;points=[[0,0.5],[1,0.5]];portConstraint=eastwest;fontSize=16;" vertex="1" parent="KD26_EoCOuMA53v5xbRF-379">
          <mxGeometry y="216" width="218" height="26" as="geometry" />
        </mxCell>
        <mxCell id="KD26_EoCOuMA53v5xbRF-423" value="PhieuLuong_1Thang" style="swimlane;fontStyle=1;align=center;verticalAlign=top;childLayout=stackLayout;horizontal=1;startSize=26;horizontalStack=0;resizeParent=1;resizeLast=0;collapsible=1;marginBottom=0;rounded=0;shadow=0;strokeWidth=1;fontSize=16;" vertex="1" parent="WIyWlLk6GJQsqaUBKTNV-1">
          <mxGeometry x="2385" y="698" width="231" height="248" as="geometry">
            <mxRectangle x="230" y="140" width="160" height="26" as="alternateBounds" />
          </mxGeometry>
        </mxCell>
        <mxCell id="KD26_EoCOuMA53v5xbRF-424" value="- maNV: String {id}" style="text;align=left;verticalAlign=top;spacingLeft=4;spacingRight=4;overflow=hidden;rotatable=0;points=[[0,0.5],[1,0.5]];portConstraint=eastwest;fontSize=16;" vertex="1" parent="KD26_EoCOuMA53v5xbRF-423">
          <mxGeometry y="26" width="231" height="26" as="geometry" />
        </mxCell>
        <mxCell id="KD26_EoCOuMA53v5xbRF-425" value="- thang: int {id}" style="text;align=left;verticalAlign=top;spacingLeft=4;spacingRight=4;overflow=hidden;rotatable=0;points=[[0,0.5],[1,0.5]];portConstraint=eastwest;rounded=0;shadow=0;html=0;fontSize=16;" vertex="1" parent="KD26_EoCOuMA53v5xbRF-423">
          <mxGeometry y="52" width="231" height="26" as="geometry" />
        </mxCell>
        <mxCell id="KD26_EoCOuMA53v5xbRF-426" value="- soNgayLam: int" style="text;align=left;verticalAlign=top;spacingLeft=4;spacingRight=4;overflow=hidden;rotatable=0;points=[[0,0.5],[1,0.5]];portConstraint=eastwest;rounded=0;shadow=0;html=0;fontSize=16;" vertex="1" parent="KD26_EoCOuMA53v5xbRF-423">
          <mxGeometry y="78" width="231" height="26" as="geometry" />
        </mxCell>
        <mxCell id="KD26_EoCOuMA53v5xbRF-427" value="- thuong: double" style="text;align=left;verticalAlign=top;spacingLeft=4;spacingRight=4;overflow=hidden;rotatable=0;points=[[0,0.5],[1,0.5]];portConstraint=eastwest;rounded=0;shadow=0;html=0;fontSize=16;" vertex="1" parent="KD26_EoCOuMA53v5xbRF-423">
          <mxGeometry y="104" width="231" height="26" as="geometry" />
        </mxCell>
        <mxCell id="KD26_EoCOuMA53v5xbRF-428" value="- phat: double" style="text;align=left;verticalAlign=top;spacingLeft=4;spacingRight=4;overflow=hidden;rotatable=0;points=[[0,0.5],[1,0.5]];portConstraint=eastwest;rounded=0;shadow=0;html=0;fontSize=16;" vertex="1" parent="KD26_EoCOuMA53v5xbRF-423">
          <mxGeometry y="130" width="231" height="26" as="geometry" />
        </mxCell>
        <mxCell id="KD26_EoCOuMA53v5xbRF-429" value="" style="line;html=1;strokeWidth=1;align=left;verticalAlign=middle;spacingTop=-1;spacingLeft=3;spacingRight=3;rotatable=0;labelPosition=right;points=[];portConstraint=eastwest;fontSize=16;" vertex="1" parent="KD26_EoCOuMA53v5xbRF-423">
          <mxGeometry y="156" width="231" height="8" as="geometry" />
        </mxCell>
        <mxCell id="KD26_EoCOuMA53v5xbRF-430" value="&lt;&lt;get()/set()&gt;&gt;" style="text;align=center;verticalAlign=top;spacingLeft=4;spacingRight=4;overflow=hidden;rotatable=0;points=[[0,0.5],[1,0.5]];portConstraint=eastwest;fontSize=16;" vertex="1" parent="KD26_EoCOuMA53v5xbRF-423">
          <mxGeometry y="164" width="231" height="26" as="geometry" />
        </mxCell>
        <mxCell id="KD26_EoCOuMA53v5xbRF-431" value="+ constructor()" style="text;align=left;verticalAlign=top;spacingLeft=4;spacingRight=4;overflow=hidden;rotatable=0;points=[[0,0.5],[1,0.5]];portConstraint=eastwest;fontSize=16;" vertex="1" parent="KD26_EoCOuMA53v5xbRF-423">
          <mxGeometry y="190" width="231" height="26" as="geometry" />
        </mxCell>
        <mxCell id="KD26_EoCOuMA53v5xbRF-432" value="+ toString(): String" style="text;align=left;verticalAlign=top;spacingLeft=4;spacingRight=4;overflow=hidden;rotatable=0;points=[[0,0.5],[1,0.5]];portConstraint=eastwest;fontSize=16;" vertex="1" parent="KD26_EoCOuMA53v5xbRF-423">
          <mxGeometry y="216" width="231" height="26" as="geometry" />
        </mxCell>
        <mxCell id="KD26_EoCOuMA53v5xbRF-449" value="SanPham" style="swimlane;fontStyle=1;align=center;verticalAlign=top;childLayout=stackLayout;horizontal=1;startSize=26;horizontalStack=0;resizeParent=1;resizeLast=0;collapsible=1;marginBottom=0;rounded=0;shadow=0;strokeWidth=1;fontSize=16;" vertex="1" parent="WIyWlLk6GJQsqaUBKTNV-1">
          <mxGeometry x="1307" y="1273.5" width="217" height="247" as="geometry">
            <mxRectangle x="230" y="140" width="160" height="26" as="alternateBounds" />
          </mxGeometry>
        </mxCell>
        <mxCell id="KD26_EoCOuMA53v5xbRF-450" value="- maSP: String {id}" style="text;align=left;verticalAlign=top;spacingLeft=4;spacingRight=4;overflow=hidden;rotatable=0;points=[[0,0.5],[1,0.5]];portConstraint=eastwest;fontSize=16;" vertex="1" parent="KD26_EoCOuMA53v5xbRF-449">
          <mxGeometry y="26" width="217" height="26" as="geometry" />
        </mxCell>
        <mxCell id="KD26_EoCOuMA53v5xbRF-451" value="- maHD: String {id}" style="text;align=left;verticalAlign=top;spacingLeft=4;spacingRight=4;overflow=hidden;rotatable=0;points=[[0,0.5],[1,0.5]];portConstraint=eastwest;rounded=0;shadow=0;html=0;fontSize=16;" vertex="1" parent="KD26_EoCOuMA53v5xbRF-449">
          <mxGeometry y="52" width="217" height="26" as="geometry" />
        </mxCell>
        <mxCell id="KD26_EoCOuMA53v5xbRF-452" value="- tenSP: String" style="text;align=left;verticalAlign=top;spacingLeft=4;spacingRight=4;overflow=hidden;rotatable=0;points=[[0,0.5],[1,0.5]];portConstraint=eastwest;rounded=0;shadow=0;html=0;fontSize=16;" vertex="1" parent="KD26_EoCOuMA53v5xbRF-449">
          <mxGeometry y="78" width="217" height="26" as="geometry" />
        </mxCell>
        <mxCell id="KD26_EoCOuMA53v5xbRF-453" value="- soLuong: int" style="text;align=left;verticalAlign=top;spacingLeft=4;spacingRight=4;overflow=hidden;rotatable=0;points=[[0,0.5],[1,0.5]];portConstraint=eastwest;rounded=0;shadow=0;html=0;fontSize=16;" vertex="1" parent="KD26_EoCOuMA53v5xbRF-449">
          <mxGeometry y="104" width="217" height="26" as="geometry" />
        </mxCell>
        <mxCell id="KD26_EoCOuMA53v5xbRF-454" value="- donGia: double" style="text;align=left;verticalAlign=top;spacingLeft=4;spacingRight=4;overflow=hidden;rotatable=0;points=[[0,0.5],[1,0.5]];portConstraint=eastwest;rounded=0;shadow=0;html=0;fontSize=16;" vertex="1" parent="KD26_EoCOuMA53v5xbRF-449">
          <mxGeometry y="130" width="217" height="26" as="geometry" />
        </mxCell>
        <mxCell id="KD26_EoCOuMA53v5xbRF-457" value="" style="line;html=1;strokeWidth=1;align=left;verticalAlign=middle;spacingTop=-1;spacingLeft=3;spacingRight=3;rotatable=0;labelPosition=right;points=[];portConstraint=eastwest;fontSize=16;" vertex="1" parent="KD26_EoCOuMA53v5xbRF-449">
          <mxGeometry y="156" width="217" height="8" as="geometry" />
        </mxCell>
        <mxCell id="KD26_EoCOuMA53v5xbRF-458" value="&lt;&lt;get()/set()&gt;&gt;" style="text;align=center;verticalAlign=top;spacingLeft=4;spacingRight=4;overflow=hidden;rotatable=0;points=[[0,0.5],[1,0.5]];portConstraint=eastwest;rounded=0;shadow=0;html=0;fontSize=16;" vertex="1" parent="KD26_EoCOuMA53v5xbRF-449">
          <mxGeometry y="164" width="217" height="26" as="geometry" />
        </mxCell>
        <mxCell id="KD26_EoCOuMA53v5xbRF-459" value="+ constructor()Â " style="text;align=left;verticalAlign=top;spacingLeft=4;spacingRight=4;overflow=hidden;rotatable=0;points=[[0,0.5],[1,0.5]];portConstraint=eastwest;fontSize=16;" vertex="1" parent="KD26_EoCOuMA53v5xbRF-449">
          <mxGeometry y="190" width="217" height="26" as="geometry" />
        </mxCell>
        <mxCell id="KD26_EoCOuMA53v5xbRF-460" value="+ toString(): String" style="text;align=left;verticalAlign=top;spacingLeft=4;spacingRight=4;overflow=hidden;rotatable=0;points=[[0,0.5],[1,0.5]];portConstraint=eastwest;fontSize=16;" vertex="1" parent="KD26_EoCOuMA53v5xbRF-449">
          <mxGeometry y="216" width="217" height="26" as="geometry" />
        </mxCell>
        <mxCell id="KD26_EoCOuMA53v5xbRF-483" value="HopDong" style="swimlane;fontStyle=1;align=center;verticalAlign=top;childLayout=stackLayout;horizontal=1;startSize=26;horizontalStack=0;resizeParent=1;resizeLast=0;collapsible=1;marginBottom=0;rounded=0;shadow=0;strokeWidth=1;fontSize=16;" vertex="1" parent="WIyWlLk6GJQsqaUBKTNV-1">
          <mxGeometry x="1652" y="1267" width="260" height="294" as="geometry">
            <mxRectangle x="230" y="140" width="160" height="26" as="alternateBounds" />
          </mxGeometry>
        </mxCell>
        <mxCell id="KD26_EoCOuMA53v5xbRF-484" value="- maHD: String {id}" style="text;align=left;verticalAlign=top;spacingLeft=4;spacingRight=4;overflow=hidden;rotatable=0;points=[[0,0.5],[1,0.5]];portConstraint=eastwest;fontSize=16;" vertex="1" parent="KD26_EoCOuMA53v5xbRF-483">
          <mxGeometry y="26" width="260" height="26" as="geometry" />
        </mxCell>
        <mxCell id="KD26_EoCOuMA53v5xbRF-485" value="- maKH: StringÂ " style="text;align=left;verticalAlign=top;spacingLeft=4;spacingRight=4;overflow=hidden;rotatable=0;points=[[0,0.5],[1,0.5]];portConstraint=eastwest;rounded=0;shadow=0;html=0;fontSize=16;" vertex="1" parent="KD26_EoCOuMA53v5xbRF-483">
          <mxGeometry y="52" width="260" height="26" as="geometry" />
        </mxCell>
        <mxCell id="KD26_EoCOuMA53v5xbRF-486" value="- tenHD: String" style="text;align=left;verticalAlign=top;spacingLeft=4;spacingRight=4;overflow=hidden;rotatable=0;points=[[0,0.5],[1,0.5]];portConstraint=eastwest;rounded=0;shadow=0;html=0;fontSize=16;" vertex="1" parent="KD26_EoCOuMA53v5xbRF-483">
          <mxGeometry y="78" width="260" height="26" as="geometry" />
        </mxCell>
        <mxCell id="KD26_EoCOuMA53v5xbRF-487" value="- donGia: double" style="text;align=left;verticalAlign=top;spacingLeft=4;spacingRight=4;overflow=hidden;rotatable=0;points=[[0,0.5],[1,0.5]];portConstraint=eastwest;rounded=0;shadow=0;html=0;fontSize=16;" vertex="1" parent="KD26_EoCOuMA53v5xbRF-483">
          <mxGeometry y="104" width="260" height="26" as="geometry" />
        </mxCell>
        <mxCell id="KD26_EoCOuMA53v5xbRF-488" value="- ngayBatDau: LocalDate" style="text;align=left;verticalAlign=top;spacingLeft=4;spacingRight=4;overflow=hidden;rotatable=0;points=[[0,0.5],[1,0.5]];portConstraint=eastwest;rounded=0;shadow=0;html=0;fontSize=16;" vertex="1" parent="KD26_EoCOuMA53v5xbRF-483">
          <mxGeometry y="130" width="260" height="26" as="geometry" />
        </mxCell>
        <mxCell id="KD26_EoCOuMA53v5xbRF-493" value="- ngayKetThucDuKien: LocalDate" style="text;align=left;verticalAlign=top;spacingLeft=4;spacingRight=4;overflow=hidden;rotatable=0;points=[[0,0.5],[1,0.5]];portConstraint=eastwest;rounded=0;shadow=0;html=0;fontSize=16;" vertex="1" parent="KD26_EoCOuMA53v5xbRF-483">
          <mxGeometry y="156" width="260" height="26" as="geometry" />
        </mxCell>
        <mxCell id="KD26_EoCOuMA53v5xbRF-494" value="- trangThai: String" style="text;align=left;verticalAlign=top;spacingLeft=4;spacingRight=4;overflow=hidden;rotatable=0;points=[[0,0.5],[1,0.5]];portConstraint=eastwest;rounded=0;shadow=0;html=0;fontSize=16;" vertex="1" parent="KD26_EoCOuMA53v5xbRF-483">
          <mxGeometry y="182" width="260" height="26" as="geometry" />
        </mxCell>
        <mxCell id="KD26_EoCOuMA53v5xbRF-489" value="" style="line;html=1;strokeWidth=1;align=left;verticalAlign=middle;spacingTop=-1;spacingLeft=3;spacingRight=3;rotatable=0;labelPosition=right;points=[];portConstraint=eastwest;fontSize=16;" vertex="1" parent="KD26_EoCOuMA53v5xbRF-483">
          <mxGeometry y="208" width="260" height="8" as="geometry" />
        </mxCell>
        <mxCell id="KD26_EoCOuMA53v5xbRF-490" value="&lt;&lt;get()/set()&gt;&gt;" style="text;align=center;verticalAlign=top;spacingLeft=4;spacingRight=4;overflow=hidden;rotatable=0;points=[[0,0.5],[1,0.5]];portConstraint=eastwest;rounded=0;shadow=0;html=0;fontSize=16;" vertex="1" parent="KD26_EoCOuMA53v5xbRF-483">
          <mxGeometry y="216" width="260" height="26" as="geometry" />
        </mxCell>
        <mxCell id="KD26_EoCOuMA53v5xbRF-491" value="+ constructor()Â " style="text;align=left;verticalAlign=top;spacingLeft=4;spacingRight=4;overflow=hidden;rotatable=0;points=[[0,0.5],[1,0.5]];portConstraint=eastwest;fontSize=16;" vertex="1" parent="KD26_EoCOuMA53v5xbRF-483">
          <mxGeometry y="242" width="260" height="26" as="geometry" />
        </mxCell>
        <mxCell id="KD26_EoCOuMA53v5xbRF-492" value="+ toString(): String" style="text;align=left;verticalAlign=top;spacingLeft=4;spacingRight=4;overflow=hidden;rotatable=0;points=[[0,0.5],[1,0.5]];portConstraint=eastwest;fontSize=16;" vertex="1" parent="KD26_EoCOuMA53v5xbRF-483">
          <mxGeometry y="268" width="260" height="26" as="geometry" />
        </mxCell>
        <mxCell id="KD26_EoCOuMA53v5xbRF-511" value="KhachHang" style="swimlane;fontStyle=1;align=center;verticalAlign=top;childLayout=stackLayout;horizontal=1;startSize=26;horizontalStack=0;resizeParent=1;resizeLast=0;collapsible=1;marginBottom=0;rounded=0;shadow=0;strokeWidth=1;fontSize=16;" vertex="1" parent="WIyWlLk6GJQsqaUBKTNV-1">
          <mxGeometry x="2037" y="1267" width="217" height="250" as="geometry">
            <mxRectangle x="230" y="140" width="160" height="26" as="alternateBounds" />
          </mxGeometry>
        </mxCell>
        <mxCell id="KD26_EoCOuMA53v5xbRF-512" value="- maKH: String {id}" style="text;align=left;verticalAlign=top;spacingLeft=4;spacingRight=4;overflow=hidden;rotatable=0;points=[[0,0.5],[1,0.5]];portConstraint=eastwest;fontSize=16;" vertex="1" parent="KD26_EoCOuMA53v5xbRF-511">
          <mxGeometry y="26" width="217" height="26" as="geometry" />
        </mxCell>
        <mxCell id="KD26_EoCOuMA53v5xbRF-513" value="- tenKH: StringÂ " style="text;align=left;verticalAlign=top;spacingLeft=4;spacingRight=4;overflow=hidden;rotatable=0;points=[[0,0.5],[1,0.5]];portConstraint=eastwest;rounded=0;shadow=0;html=0;fontSize=16;" vertex="1" parent="KD26_EoCOuMA53v5xbRF-511">
          <mxGeometry y="52" width="217" height="26" as="geometry" />
        </mxCell>
        <mxCell id="KD26_EoCOuMA53v5xbRF-514" value="- toChuc: boolean" style="text;align=left;verticalAlign=top;spacingLeft=4;spacingRight=4;overflow=hidden;rotatable=0;points=[[0,0.5],[1,0.5]];portConstraint=eastwest;rounded=0;shadow=0;html=0;fontSize=16;" vertex="1" parent="KD26_EoCOuMA53v5xbRF-511">
          <mxGeometry y="78" width="217" height="26" as="geometry" />
        </mxCell>
        <mxCell id="KD26_EoCOuMA53v5xbRF-515" value="- email: String" style="text;align=left;verticalAlign=top;spacingLeft=4;spacingRight=4;overflow=hidden;rotatable=0;points=[[0,0.5],[1,0.5]];portConstraint=eastwest;rounded=0;shadow=0;html=0;fontSize=16;" vertex="1" parent="KD26_EoCOuMA53v5xbRF-511">
          <mxGeometry y="104" width="217" height="26" as="geometry" />
        </mxCell>
        <mxCell id="KD26_EoCOuMA53v5xbRF-516" value="- soDienThoai" style="text;align=left;verticalAlign=top;spacingLeft=4;spacingRight=4;overflow=hidden;rotatable=0;points=[[0,0.5],[1,0.5]];portConstraint=eastwest;rounded=0;shadow=0;html=0;fontSize=16;" vertex="1" parent="KD26_EoCOuMA53v5xbRF-511">
          <mxGeometry y="130" width="217" height="26" as="geometry" />
        </mxCell>
        <mxCell id="KD26_EoCOuMA53v5xbRF-519" value="" style="line;html=1;strokeWidth=1;align=left;verticalAlign=middle;spacingTop=-1;spacingLeft=3;spacingRight=3;rotatable=0;labelPosition=right;points=[];portConstraint=eastwest;fontSize=16;" vertex="1" parent="KD26_EoCOuMA53v5xbRF-511">
          <mxGeometry y="156" width="217" height="8" as="geometry" />
        </mxCell>
        <mxCell id="KD26_EoCOuMA53v5xbRF-520" value="&lt;&lt;get()/set()&gt;&gt;" style="text;align=center;verticalAlign=top;spacingLeft=4;spacingRight=4;overflow=hidden;rotatable=0;points=[[0,0.5],[1,0.5]];portConstraint=eastwest;rounded=0;shadow=0;html=0;fontSize=16;" vertex="1" parent="KD26_EoCOuMA53v5xbRF-511">
          <mxGeometry y="164" width="217" height="26" as="geometry" />
        </mxCell>
        <mxCell id="KD26_EoCOuMA53v5xbRF-521" value="+ constructor()Â " style="text;align=left;verticalAlign=top;spacingLeft=4;spacingRight=4;overflow=hidden;rotatable=0;points=[[0,0.5],[1,0.5]];portConstraint=eastwest;fontSize=16;" vertex="1" parent="KD26_EoCOuMA53v5xbRF-511">
          <mxGeometry y="190" width="217" height="26" as="geometry" />
        </mxCell>
        <mxCell id="KD26_EoCOuMA53v5xbRF-522" value="+ toString(): String" style="text;align=left;verticalAlign=top;spacingLeft=4;spacingRight=4;overflow=hidden;rotatable=0;points=[[0,0.5],[1,0.5]];portConstraint=eastwest;fontSize=16;" vertex="1" parent="KD26_EoCOuMA53v5xbRF-511">
          <mxGeometry y="216" width="217" height="26" as="geometry" />
        </mxCell>
        <mxCell id="KD26_EoCOuMA53v5xbRF-551" value="PhieuChamCong_1Ngay" style="swimlane;fontStyle=1;align=center;verticalAlign=top;childLayout=stackLayout;horizontal=1;startSize=26;horizontalStack=0;resizeParent=1;resizeLast=0;collapsible=1;marginBottom=0;rounded=0;shadow=0;strokeWidth=1;fontSize=16;" vertex="1" parent="WIyWlLk6GJQsqaUBKTNV-1">
          <mxGeometry x="2387" y="1260" width="217" height="294" as="geometry">
            <mxRectangle x="230" y="140" width="160" height="26" as="alternateBounds" />
          </mxGeometry>
        </mxCell>
        <mxCell id="KD26_EoCOuMA53v5xbRF-552" value="- maCN: String {id}" style="text;align=left;verticalAlign=top;spacingLeft=4;spacingRight=4;overflow=hidden;rotatable=0;points=[[0,0.5],[1,0.5]];portConstraint=eastwest;fontSize=16;" vertex="1" parent="KD26_EoCOuMA53v5xbRF-551">
          <mxGeometry y="26" width="217" height="26" as="geometry" />
        </mxCell>
        <mxCell id="KD26_EoCOuMA53v5xbRF-553" value="- ngay: localDate {id}" style="text;align=left;verticalAlign=top;spacingLeft=4;spacingRight=4;overflow=hidden;rotatable=0;points=[[0,0.5],[1,0.5]];portConstraint=eastwest;rounded=0;shadow=0;html=0;fontSize=16;" vertex="1" parent="KD26_EoCOuMA53v5xbRF-551">
          <mxGeometry y="52" width="217" height="26" as="geometry" />
        </mxCell>
        <mxCell id="KD26_EoCOuMA53v5xbRF-554" value="- soLuongSP: int" style="text;align=left;verticalAlign=top;spacingLeft=4;spacingRight=4;overflow=hidden;rotatable=0;points=[[0,0.5],[1,0.5]];portConstraint=eastwest;rounded=0;shadow=0;html=0;fontSize=16;" vertex="1" parent="KD26_EoCOuMA53v5xbRF-551">
          <mxGeometry y="78" width="217" height="26" as="geometry" />
        </mxCell>
        <mxCell id="KD26_EoCOuMA53v5xbRF-555" value="- noiDungPhat: String" style="text;align=left;verticalAlign=top;spacingLeft=4;spacingRight=4;overflow=hidden;rotatable=0;points=[[0,0.5],[1,0.5]];portConstraint=eastwest;rounded=0;shadow=0;html=0;fontSize=16;" vertex="1" parent="KD26_EoCOuMA53v5xbRF-551">
          <mxGeometry y="104" width="217" height="26" as="geometry" />
        </mxCell>
        <mxCell id="KD26_EoCOuMA53v5xbRF-556" value="- thuong: double" style="text;align=left;verticalAlign=top;spacingLeft=4;spacingRight=4;overflow=hidden;rotatable=0;points=[[0,0.5],[1,0.5]];portConstraint=eastwest;rounded=0;shadow=0;html=0;fontSize=16;" vertex="1" parent="KD26_EoCOuMA53v5xbRF-551">
          <mxGeometry y="130" width="217" height="26" as="geometry" />
        </mxCell>
        <mxCell id="KD26_EoCOuMA53v5xbRF-561" value="- phat: double" style="text;align=left;verticalAlign=top;spacingLeft=4;spacingRight=4;overflow=hidden;rotatable=0;points=[[0,0.5],[1,0.5]];portConstraint=eastwest;rounded=0;shadow=0;html=0;fontSize=16;" vertex="1" parent="KD26_EoCOuMA53v5xbRF-551">
          <mxGeometry y="156" width="217" height="26" as="geometry" />
        </mxCell>
        <mxCell id="KD26_EoCOuMA53v5xbRF-562" value="-Â  soLuongSPTangCa: int" style="text;align=left;verticalAlign=top;spacingLeft=4;spacingRight=4;overflow=hidden;rotatable=0;points=[[0,0.5],[1,0.5]];portConstraint=eastwest;rounded=0;shadow=0;html=0;fontSize=16;" vertex="1" parent="KD26_EoCOuMA53v5xbRF-551">
          <mxGeometry y="182" width="217" height="26" as="geometry" />
        </mxCell>
        <mxCell id="KD26_EoCOuMA53v5xbRF-557" value="" style="line;html=1;strokeWidth=1;align=left;verticalAlign=middle;spacingTop=-1;spacingLeft=3;spacingRight=3;rotatable=0;labelPosition=right;points=[];portConstraint=eastwest;fontSize=16;" vertex="1" parent="KD26_EoCOuMA53v5xbRF-551">
          <mxGeometry y="208" width="217" height="8" as="geometry" />
        </mxCell>
        <mxCell id="KD26_EoCOuMA53v5xbRF-558" value="&lt;&lt;get()/set()&gt;&gt;" style="text;align=center;verticalAlign=top;spacingLeft=4;spacingRight=4;overflow=hidden;rotatable=0;points=[[0,0.5],[1,0.5]];portConstraint=eastwest;rounded=0;shadow=0;html=0;fontSize=16;" vertex="1" parent="KD26_EoCOuMA53v5xbRF-551">
          <mxGeometry y="216" width="217" height="26" as="geometry" />
        </mxCell>
        <mxCell id="KD26_EoCOuMA53v5xbRF-559" value="+ constructor()Â " style="text;align=left;verticalAlign=top;spacingLeft=4;spacingRight=4;overflow=hidden;rotatable=0;points=[[0,0.5],[1,0.5]];portConstraint=eastwest;fontSize=16;" vertex="1" parent="KD26_EoCOuMA53v5xbRF-551">
          <mxGeometry y="242" width="217" height="26" as="geometry" />
        </mxCell>
        <mxCell id="KD26_EoCOuMA53v5xbRF-560" value="+ toString(): String" style="text;align=left;verticalAlign=top;spacingLeft=4;spacingRight=4;overflow=hidden;rotatable=0;points=[[0,0.5],[1,0.5]];portConstraint=eastwest;fontSize=16;" vertex="1" parent="KD26_EoCOuMA53v5xbRF-551">
          <mxGeometry y="268" width="217" height="26" as="geometry" />
        </mxCell>
        <mxCell id="KD26_EoCOuMA53v5xbRF-573" value="CongDoanTienQuyet" style="swimlane;fontStyle=1;align=center;verticalAlign=top;childLayout=stackLayout;horizontal=1;startSize=26;horizontalStack=0;resizeParent=1;resizeLast=0;collapsible=1;marginBottom=0;rounded=0;shadow=0;strokeWidth=1;fontSize=16;" vertex="1" parent="WIyWlLk6GJQsqaUBKTNV-1">
          <mxGeometry x="1307" y="1685" width="217" height="190" as="geometry">
            <mxRectangle x="230" y="140" width="160" height="26" as="alternateBounds" />
          </mxGeometry>
        </mxCell>
        <mxCell id="KD26_EoCOuMA53v5xbRF-574" value="- maCD: String {id}" style="text;align=left;verticalAlign=top;spacingLeft=4;spacingRight=4;overflow=hidden;rotatable=0;points=[[0,0.5],[1,0.5]];portConstraint=eastwest;fontSize=16;" vertex="1" parent="KD26_EoCOuMA53v5xbRF-573">
          <mxGeometry y="26" width="217" height="26" as="geometry" />
        </mxCell>
        <mxCell id="KD26_EoCOuMA53v5xbRF-583" value="- maCDTQ: String {id}" style="text;align=left;verticalAlign=top;spacingLeft=4;spacingRight=4;overflow=hidden;rotatable=0;points=[[0,0.5],[1,0.5]];portConstraint=eastwest;rounded=0;shadow=0;html=0;fontSize=16;" vertex="1" parent="KD26_EoCOuMA53v5xbRF-573">
          <mxGeometry y="52" width="217" height="26" as="geometry" />
        </mxCell>
        <mxCell id="KD26_EoCOuMA53v5xbRF-575" value="- soLuongToiThieu" style="text;align=left;verticalAlign=top;spacingLeft=4;spacingRight=4;overflow=hidden;rotatable=0;points=[[0,0.5],[1,0.5]];portConstraint=eastwest;rounded=0;shadow=0;html=0;fontSize=16;" vertex="1" parent="KD26_EoCOuMA53v5xbRF-573">
          <mxGeometry y="78" width="217" height="26" as="geometry" />
        </mxCell>
        <mxCell id="KD26_EoCOuMA53v5xbRF-579" value="" style="line;html=1;strokeWidth=1;align=left;verticalAlign=middle;spacingTop=-1;spacingLeft=3;spacingRight=3;rotatable=0;labelPosition=right;points=[];portConstraint=eastwest;fontSize=16;" vertex="1" parent="KD26_EoCOuMA53v5xbRF-573">
          <mxGeometry y="104" width="217" height="8" as="geometry" />
        </mxCell>
        <mxCell id="KD26_EoCOuMA53v5xbRF-580" value="&lt;&lt;get()/set()&gt;&gt;" style="text;align=center;verticalAlign=top;spacingLeft=4;spacingRight=4;overflow=hidden;rotatable=0;points=[[0,0.5],[1,0.5]];portConstraint=eastwest;rounded=0;shadow=0;html=0;fontSize=16;" vertex="1" parent="KD26_EoCOuMA53v5xbRF-573">
          <mxGeometry y="112" width="217" height="26" as="geometry" />
        </mxCell>
        <mxCell id="KD26_EoCOuMA53v5xbRF-581" value="+ constructor()Â " style="text;align=left;verticalAlign=top;spacingLeft=4;spacingRight=4;overflow=hidden;rotatable=0;points=[[0,0.5],[1,0.5]];portConstraint=eastwest;fontSize=16;" vertex="1" parent="KD26_EoCOuMA53v5xbRF-573">
          <mxGeometry y="138" width="217" height="26" as="geometry" />
        </mxCell>
        <mxCell id="KD26_EoCOuMA53v5xbRF-582" value="+ toString(): String" style="text;align=left;verticalAlign=top;spacingLeft=4;spacingRight=4;overflow=hidden;rotatable=0;points=[[0,0.5],[1,0.5]];portConstraint=eastwest;fontSize=16;" vertex="1" parent="KD26_EoCOuMA53v5xbRF-573">
          <mxGeometry y="164" width="217" height="26" as="geometry" />
        </mxCell>
        <mxCell id="KD26_EoCOuMA53v5xbRF-600" value="CongDoan" style="swimlane;fontStyle=1;align=center;verticalAlign=top;childLayout=stackLayout;horizontal=1;startSize=26;horizontalStack=0;resizeParent=1;resizeLast=0;collapsible=1;marginBottom=0;rounded=0;shadow=0;strokeWidth=1;fontSize=16;" vertex="1" parent="WIyWlLk6GJQsqaUBKTNV-1">
          <mxGeometry x="1663" y="1685" width="217" height="242" as="geometry">
            <mxRectangle x="230" y="140" width="160" height="26" as="alternateBounds" />
          </mxGeometry>
        </mxCell>
        <mxCell id="KD26_EoCOuMA53v5xbRF-601" value="- maCD: String {id}" style="text;align=left;verticalAlign=top;spacingLeft=4;spacingRight=4;overflow=hidden;rotatable=0;points=[[0,0.5],[1,0.5]];portConstraint=eastwest;fontSize=16;" vertex="1" parent="KD26_EoCOuMA53v5xbRF-600">
          <mxGeometry y="26" width="217" height="26" as="geometry" />
        </mxCell>
        <mxCell id="KD26_EoCOuMA53v5xbRF-608" value="- maSP: StringÂ " style="text;align=left;verticalAlign=top;spacingLeft=4;spacingRight=4;overflow=hidden;rotatable=0;points=[[0,0.5],[1,0.5]];portConstraint=eastwest;fontSize=16;" vertex="1" parent="KD26_EoCOuMA53v5xbRF-600">
          <mxGeometry y="52" width="217" height="26" as="geometry" />
        </mxCell>
        <mxCell id="KD26_EoCOuMA53v5xbRF-609" value="- tenCD: StringÂ " style="text;align=left;verticalAlign=top;spacingLeft=4;spacingRight=4;overflow=hidden;rotatable=0;points=[[0,0.5],[1,0.5]];portConstraint=eastwest;fontSize=16;" vertex="1" parent="KD26_EoCOuMA53v5xbRF-600">
          <mxGeometry y="78" width="217" height="26" as="geometry" />
        </mxCell>
        <mxCell id="KD26_EoCOuMA53v5xbRF-610" value="- donGia: double" style="text;align=left;verticalAlign=top;spacingLeft=4;spacingRight=4;overflow=hidden;rotatable=0;points=[[0,0.5],[1,0.5]];portConstraint=eastwest;fontSize=16;" vertex="1" parent="KD26_EoCOuMA53v5xbRF-600">
          <mxGeometry y="104" width="217" height="26" as="geometry" />
        </mxCell>
        <mxCell id="KD26_EoCOuMA53v5xbRF-611" value="- trangThai: boolean" style="text;align=left;verticalAlign=top;spacingLeft=4;spacingRight=4;overflow=hidden;rotatable=0;points=[[0,0.5],[1,0.5]];portConstraint=eastwest;fontSize=16;" vertex="1" parent="KD26_EoCOuMA53v5xbRF-600">
          <mxGeometry y="130" width="217" height="26" as="geometry" />
        </mxCell>
        <mxCell id="KD26_EoCOuMA53v5xbRF-604" value="" style="line;html=1;strokeWidth=1;align=left;verticalAlign=middle;spacingTop=-1;spacingLeft=3;spacingRight=3;rotatable=0;labelPosition=right;points=[];portConstraint=eastwest;fontSize=16;" vertex="1" parent="KD26_EoCOuMA53v5xbRF-600">
          <mxGeometry y="156" width="217" height="8" as="geometry" />
        </mxCell>
        <mxCell id="KD26_EoCOuMA53v5xbRF-605" value="&lt;&lt;get()/set()&gt;&gt;" style="text;align=center;verticalAlign=top;spacingLeft=4;spacingRight=4;overflow=hidden;rotatable=0;points=[[0,0.5],[1,0.5]];portConstraint=eastwest;rounded=0;shadow=0;html=0;fontSize=16;" vertex="1" parent="KD26_EoCOuMA53v5xbRF-600">
          <mxGeometry y="164" width="217" height="26" as="geometry" />
        </mxCell>
        <mxCell id="KD26_EoCOuMA53v5xbRF-606" value="+ constructor()Â " style="text;align=left;verticalAlign=top;spacingLeft=4;spacingRight=4;overflow=hidden;rotatable=0;points=[[0,0.5],[1,0.5]];portConstraint=eastwest;fontSize=16;" vertex="1" parent="KD26_EoCOuMA53v5xbRF-600">
          <mxGeometry y="190" width="217" height="26" as="geometry" />
        </mxCell>
        <mxCell id="KD26_EoCOuMA53v5xbRF-607" value="+ toString(): String" style="text;align=left;verticalAlign=top;spacingLeft=4;spacingRight=4;overflow=hidden;rotatable=0;points=[[0,0.5],[1,0.5]];portConstraint=eastwest;fontSize=16;" vertex="1" parent="KD26_EoCOuMA53v5xbRF-600">
          <mxGeometry y="216" width="217" height="26" as="geometry" />
        </mxCell>
        <mxCell id="KD26_EoCOuMA53v5xbRF-625" value="ChiTietPhanCong" style="swimlane;fontStyle=1;align=center;verticalAlign=top;childLayout=stackLayout;horizontal=1;startSize=26;horizontalStack=0;resizeParent=1;resizeLast=0;collapsible=1;marginBottom=0;rounded=0;shadow=0;strokeWidth=1;fontSize=16;" vertex="1" parent="WIyWlLk6GJQsqaUBKTNV-1">
          <mxGeometry x="2025" y="1680" width="225" height="221" as="geometry">
            <mxRectangle x="230" y="140" width="160" height="26" as="alternateBounds" />
          </mxGeometry>
        </mxCell>
        <mxCell id="KD26_EoCOuMA53v5xbRF-626" value="- maCN: String {id}" style="text;align=left;verticalAlign=top;spacingLeft=4;spacingRight=4;overflow=hidden;rotatable=0;points=[[0,0.5],[1,0.5]];portConstraint=eastwest;fontSize=16;" vertex="1" parent="KD26_EoCOuMA53v5xbRF-625">
          <mxGeometry y="26" width="225" height="26" as="geometry" />
        </mxCell>
        <mxCell id="KD26_EoCOuMA53v5xbRF-627" value="- maCD: String {id}" style="text;align=left;verticalAlign=top;spacingLeft=4;spacingRight=4;overflow=hidden;rotatable=0;points=[[0,0.5],[1,0.5]];portConstraint=eastwest;fontSize=16;" vertex="1" parent="KD26_EoCOuMA53v5xbRF-625">
          <mxGeometry y="52" width="225" height="26" as="geometry" />
        </mxCell>
        <mxCell id="KD26_EoCOuMA53v5xbRF-628" value="- ngayPhanCong: LocalDate" style="text;align=left;verticalAlign=top;spacingLeft=4;spacingRight=4;overflow=hidden;rotatable=0;points=[[0,0.5],[1,0.5]];portConstraint=eastwest;fontSize=16;" vertex="1" parent="KD26_EoCOuMA53v5xbRF-625">
          <mxGeometry y="78" width="225" height="26" as="geometry" />
        </mxCell>
        <mxCell id="KD26_EoCOuMA53v5xbRF-629" value="- trangThai: boolean" style="text;align=left;verticalAlign=top;spacingLeft=4;spacingRight=4;overflow=hidden;rotatable=0;points=[[0,0.5],[1,0.5]];portConstraint=eastwest;fontSize=16;" vertex="1" parent="KD26_EoCOuMA53v5xbRF-625">
          <mxGeometry y="104" width="225" height="26" as="geometry" />
        </mxCell>
        <mxCell id="KD26_EoCOuMA53v5xbRF-631" value="" style="line;html=1;strokeWidth=1;align=left;verticalAlign=middle;spacingTop=-1;spacingLeft=3;spacingRight=3;rotatable=0;labelPosition=right;points=[];portConstraint=eastwest;fontSize=16;" vertex="1" parent="KD26_EoCOuMA53v5xbRF-625">
          <mxGeometry y="130" width="225" height="8" as="geometry" />
        </mxCell>
        <mxCell id="KD26_EoCOuMA53v5xbRF-632" value="&lt;&lt;get()/set()&gt;&gt;" style="text;align=center;verticalAlign=top;spacingLeft=4;spacingRight=4;overflow=hidden;rotatable=0;points=[[0,0.5],[1,0.5]];portConstraint=eastwest;rounded=0;shadow=0;html=0;fontSize=16;" vertex="1" parent="KD26_EoCOuMA53v5xbRF-625">
          <mxGeometry y="138" width="225" height="26" as="geometry" />
        </mxCell>
        <mxCell id="KD26_EoCOuMA53v5xbRF-633" value="+ constructor()Â " style="text;align=left;verticalAlign=top;spacingLeft=4;spacingRight=4;overflow=hidden;rotatable=0;points=[[0,0.5],[1,0.5]];portConstraint=eastwest;fontSize=16;" vertex="1" parent="KD26_EoCOuMA53v5xbRF-625">
          <mxGeometry y="164" width="225" height="26" as="geometry" />
        </mxCell>
        <mxCell id="KD26_EoCOuMA53v5xbRF-634" value="+ toString(): String" style="text;align=left;verticalAlign=top;spacingLeft=4;spacingRight=4;overflow=hidden;rotatable=0;points=[[0,0.5],[1,0.5]];portConstraint=eastwest;fontSize=16;" vertex="1" parent="KD26_EoCOuMA53v5xbRF-625">
          <mxGeometry y="190" width="225" height="26" as="geometry" />
        </mxCell>
        <mxCell id="KD26_EoCOuMA53v5xbRF-660" value="CongNhan" style="swimlane;fontStyle=1;align=center;verticalAlign=top;childLayout=stackLayout;horizontal=1;startSize=26;horizontalStack=0;resizeParent=1;resizeLast=0;collapsible=1;marginBottom=0;rounded=0;shadow=0;strokeWidth=1;fontSize=16;" vertex="1" parent="WIyWlLk6GJQsqaUBKTNV-1">
          <mxGeometry x="2385" y="1675" width="233" height="320" as="geometry">
            <mxRectangle x="230" y="140" width="160" height="26" as="alternateBounds" />
          </mxGeometry>
        </mxCell>
        <mxCell id="KD26_EoCOuMA53v5xbRF-661" value="- maCN: String {id}" style="text;align=left;verticalAlign=top;spacingLeft=4;spacingRight=4;overflow=hidden;rotatable=0;points=[[0,0.5],[1,0.5]];portConstraint=eastwest;fontSize=16;" vertex="1" parent="KD26_EoCOuMA53v5xbRF-660">
          <mxGeometry y="26" width="233" height="26" as="geometry" />
        </mxCell>
        <mxCell id="KD26_EoCOuMA53v5xbRF-662" value="- tenCN: String {id}" style="text;align=left;verticalAlign=top;spacingLeft=4;spacingRight=4;overflow=hidden;rotatable=0;points=[[0,0.5],[1,0.5]];portConstraint=eastwest;fontSize=16;" vertex="1" parent="KD26_EoCOuMA53v5xbRF-660">
          <mxGeometry y="52" width="233" height="26" as="geometry" />
        </mxCell>
        <mxCell id="KD26_EoCOuMA53v5xbRF-663" value="- gioiTinh: boolean" style="text;align=left;verticalAlign=top;spacingLeft=4;spacingRight=4;overflow=hidden;rotatable=0;points=[[0,0.5],[1,0.5]];portConstraint=eastwest;fontSize=16;" vertex="1" parent="KD26_EoCOuMA53v5xbRF-660">
          <mxGeometry y="78" width="233" height="26" as="geometry" />
        </mxCell>
        <mxCell id="KD26_EoCOuMA53v5xbRF-664" value="- ngaySinh: LocalDate" style="text;align=left;verticalAlign=top;spacingLeft=4;spacingRight=4;overflow=hidden;rotatable=0;points=[[0,0.5],[1,0.5]];portConstraint=eastwest;fontSize=16;" vertex="1" parent="KD26_EoCOuMA53v5xbRF-660">
          <mxGeometry y="104" width="233" height="26" as="geometry" />
        </mxCell>
        <mxCell id="KD26_EoCOuMA53v5xbRF-669" value="- ngayBatDauLam: LocalDate" style="text;align=left;verticalAlign=top;spacingLeft=4;spacingRight=4;overflow=hidden;rotatable=0;points=[[0,0.5],[1,0.5]];portConstraint=eastwest;fontSize=16;" vertex="1" parent="KD26_EoCOuMA53v5xbRF-660">
          <mxGeometry y="130" width="233" height="26" as="geometry" />
        </mxCell>
        <mxCell id="KD26_EoCOuMA53v5xbRF-670" value="- CCCD; String" style="text;align=left;verticalAlign=top;spacingLeft=4;spacingRight=4;overflow=hidden;rotatable=0;points=[[0,0.5],[1,0.5]];portConstraint=eastwest;fontSize=16;" vertex="1" parent="KD26_EoCOuMA53v5xbRF-660">
          <mxGeometry y="156" width="233" height="26" as="geometry" />
        </mxCell>
        <mxCell id="KD26_EoCOuMA53v5xbRF-671" value="- trangThai: boolean" style="text;align=left;verticalAlign=top;spacingLeft=4;spacingRight=4;overflow=hidden;rotatable=0;points=[[0,0.5],[1,0.5]];portConstraint=eastwest;fontSize=16;" vertex="1" parent="KD26_EoCOuMA53v5xbRF-660">
          <mxGeometry y="182" width="233" height="26" as="geometry" />
        </mxCell>
        <mxCell id="KD26_EoCOuMA53v5xbRF-672" value="- choPhanCong: boolean" style="text;align=left;verticalAlign=top;spacingLeft=4;spacingRight=4;overflow=hidden;rotatable=0;points=[[0,0.5],[1,0.5]];portConstraint=eastwest;fontSize=16;" vertex="1" parent="KD26_EoCOuMA53v5xbRF-660">
          <mxGeometry y="208" width="233" height="26" as="geometry" />
        </mxCell>
        <mxCell id="KD26_EoCOuMA53v5xbRF-665" value="" style="line;html=1;strokeWidth=1;align=left;verticalAlign=middle;spacingTop=-1;spacingLeft=3;spacingRight=3;rotatable=0;labelPosition=right;points=[];portConstraint=eastwest;fontSize=16;" vertex="1" parent="KD26_EoCOuMA53v5xbRF-660">
          <mxGeometry y="234" width="233" height="8" as="geometry" />
        </mxCell>
        <mxCell id="KD26_EoCOuMA53v5xbRF-666" value="&lt;&lt;get()/set()&gt;&gt;" style="text;align=center;verticalAlign=top;spacingLeft=4;spacingRight=4;overflow=hidden;rotatable=0;points=[[0,0.5],[1,0.5]];portConstraint=eastwest;rounded=0;shadow=0;html=0;fontSize=16;" vertex="1" parent="KD26_EoCOuMA53v5xbRF-660">
          <mxGeometry y="242" width="233" height="26" as="geometry" />
        </mxCell>
        <mxCell id="KD26_EoCOuMA53v5xbRF-667" value="+ constructor()Â " style="text;align=left;verticalAlign=top;spacingLeft=4;spacingRight=4;overflow=hidden;rotatable=0;points=[[0,0.5],[1,0.5]];portConstraint=eastwest;fontSize=16;" vertex="1" parent="KD26_EoCOuMA53v5xbRF-660">
          <mxGeometry y="268" width="233" height="26" as="geometry" />
        </mxCell>
        <mxCell id="KD26_EoCOuMA53v5xbRF-668" value="+ toString(): String" style="text;align=left;verticalAlign=top;spacingLeft=4;spacingRight=4;overflow=hidden;rotatable=0;points=[[0,0.5],[1,0.5]];portConstraint=eastwest;fontSize=16;" vertex="1" parent="KD26_EoCOuMA53v5xbRF-660">
          <mxGeometry y="294" width="233" height="26" as="geometry" />
        </mxCell>
      </root>
    </mxGraphModel>
  </diagram>
</mxfile>
